TITLE ""
FILE "DISC1Track24.mp3" MP3
  TRACK 01 AUDIO
    TITLE "DISC1Track24_01"
    INDEX 01 00:00:00
  TRACK 02 AUDIO
    TITLE "DISC1Track24_02"
    INDEX 01 00:01:41
  TRACK 03 AUDIO
    TITLE "DISC1Track24_03"
    INDEX 01 00:01:57
  TRACK 04 AUDIO
    TITLE "DISC1Track24_04"
    INDEX 01 00:05:23
  TRACK 05 AUDIO
    TITLE "DISC1Track24_05"
    INDEX 01 00:08:63
  TRACK 06 AUDIO
    TITLE "DISC1Track24_06"
    INDEX 01 00:12:10
  TRACK 07 AUDIO
    TITLE "DISC1Track24_07"
    INDEX 01 00:12:25
  TRACK 08 AUDIO
    TITLE "DISC1Track24_08"
    INDEX 01 00:15:22
  TRACK 09 AUDIO
    TITLE "DISC1Track24_09"
    INDEX 01 00:18:22
  TRACK 10 AUDIO
    TITLE "DISC1Track24_10"
    INDEX 01 00:20:66
  TRACK 11 AUDIO
    TITLE "DISC1Track24_11"
    INDEX 01 00:21:01
  TRACK 12 AUDIO
    TITLE "DISC1Track24_12"
    INDEX 01 00:22:35
  TRACK 13 AUDIO
    TITLE "DISC1Track24_13"
    INDEX 01 00:24:50
  TRACK 14 AUDIO
    TITLE "DISC1Track24_14"
    INDEX 01 00:26:37
  TRACK 15 AUDIO
    TITLE "DISC1Track24_15"
    INDEX 01 00:26:53
  TRACK 16 AUDIO
    TITLE "DISC1Track24_16"
    INDEX 01 00:29:37
  TRACK 17 AUDIO
    TITLE "DISC1Track24_17"
    INDEX 01 00:31:70
  TRACK 18 AUDIO
    TITLE "DISC1Track24_18"
    INDEX 01 00:34:09
  TRACK 19 AUDIO
    TITLE "DISC1Track24_19"
    INDEX 01 00:34:23
  TRACK 20 AUDIO
    TITLE "DISC1Track24_20"
    INDEX 01 00:36:12
  TRACK 21 AUDIO
    TITLE "DISC1Track24_21"
    INDEX 01 00:38:32
  TRACK 22 AUDIO
    TITLE "DISC1Track24_22"
    INDEX 01 00:40:16
  TRACK 23 AUDIO
    TITLE "DISC1Track24_23"
    INDEX 01 00:40:33
  TRACK 24 AUDIO
    TITLE "DISC1Track24_24"
    INDEX 01 00:44:74
  TRACK 25 AUDIO
    TITLE "DISC1Track24_25"
    INDEX 01 00:49:32
  TRACK 26 AUDIO
    TITLE "DISC1Track24_26"
    INDEX 01 00:53:32
  TRACK 27 AUDIO
    TITLE "DISC1Track24_27"
    INDEX 01 00:53:48
  TRACK 28 AUDIO
    TITLE "DISC1Track24_28"
    INDEX 01 00:56:03
  TRACK 29 AUDIO
    TITLE "DISC1Track24_29"
    INDEX 01 00:59:13
  TRACK 30 AUDIO
    TITLE "DISC1Track24_30"
    INDEX 01 01:01:61
  TRACK 31 AUDIO
    TITLE "DISC1Track24_31"
    INDEX 01 01:01:69
  TRACK 32 AUDIO
    TITLE "DISC1Track24_32"
    INDEX 01 01:05:59
  TRACK 33 AUDIO
    TITLE "DISC1Track24_33"
    INDEX 01 01:10:42
  TRACK 34 AUDIO
    TITLE "DISC1Track24_34"
    INDEX 01 01:15:02
  TRACK 35 AUDIO
    TITLE "DISC1Track24_35"
    INDEX 01 01:15:18
  TRACK 36 AUDIO
    TITLE "DISC1Track24_36"
    INDEX 01 01:18:10
  TRACK 37 AUDIO
    TITLE "DISC1Track24_37"
    INDEX 01 01:21:66
  TRACK 38 AUDIO
    TITLE "DISC1Track24_38"
    INDEX 01 01:25:10
  TRACK 39 AUDIO
    TITLE "DISC1Track24_39"
    INDEX 01 01:25:24
  TRACK 40 AUDIO
    TITLE "DISC1Track24_40"
    INDEX 01 01:26:65
  TRACK 41 AUDIO
    TITLE "DISC1Track24_41"
    INDEX 01 01:28:68
  TRACK 42 AUDIO
    TITLE "DISC1Track24_42"
    INDEX 01 01:30:47
  TRACK 43 AUDIO
    TITLE "DISC1Track24_43"
    INDEX 01 01:30:63
  TRACK 44 AUDIO
    TITLE "DISC1Track24_44"
    INDEX 01 01:33:49
  TRACK 45 AUDIO
    TITLE "DISC1Track24_45"
    INDEX 01 01:36:65
  TRACK 46 AUDIO
    TITLE "DISC1Track24_46"
    INDEX 01 01:39:56
  TRACK 47 AUDIO
    TITLE "DISC1Track24_47"
    INDEX 01 01:39:67
  TRACK 48 AUDIO
    TITLE "DISC1Track24_48"
    INDEX 01 01:42:36
  TRACK 49 AUDIO
    TITLE "DISC1Track24_49"
    INDEX 01 01:45:19
  TRACK 50 AUDIO
    TITLE "DISC1Track24_50"
    INDEX 01 01:47:61
  TRACK 51 AUDIO
    TITLE "DISC1Track24_51"
    INDEX 01 01:47:75
  TRACK 52 AUDIO
    TITLE "DISC1Track24_52"
    INDEX 01 01:50:65
  TRACK 53 AUDIO
    TITLE "DISC1Track24_53"
    INDEX 01 01:53:38
  TRACK 54 AUDIO
    TITLE "DISC1Track24_54"
    INDEX 01 01:55:66
